<svg width="150" height="34" viewBox="0 0 150 34" fill="none" xmlns="http://www.w3.org/2000/svg">
<g clip-path="url(#clip0_1_1862)">
<path fill-rule="evenodd" clip-rule="evenodd" d="M80.1848 23.2528C78.5545 24.9145 76.6055 25.7505 74.3452 25.7505C72.5173 25.7505 70.9645 25.3759 69.3797 24.4499V20.6381C70.6542 21.5072 72.2555 22.335 73.8362 22.335C77.1321 22.335 79.0945 20.0556 79.0945 16.8232C79.0945 13.5888 77.0648 11.2411 73.7669 11.2411C72.2948 11.2411 71.1011 11.7729 70.1679 12.8397C69.1686 13.9954 68.6514 15.6478 68.6514 17.831V32.8826H68.4031C67.9702 32.8815 67.5417 32.7951 67.1421 32.6284C66.7425 32.4617 66.3797 32.2179 66.0743 31.9109C65.7689 31.6039 65.527 31.2398 65.3623 30.8393C65.1976 30.4388 65.1134 30.0098 65.1145 29.5768V17.2671C65.1145 12.0429 68.2914 7.82556 73.7524 7.82556C76.4473 7.82556 78.6373 8.75161 80.2976 10.614C81.8586 12.3534 82.6314 14.5572 82.6314 17.2102C82.6314 19.5693 81.8152 21.5879 80.1848 23.2528ZM118.483 23.1245C116.859 24.8762 114.77 25.7505 112.237 25.7505C109.563 25.7505 107.383 24.8234 105.725 22.962C104.165 21.201 103.391 18.995 103.391 16.3669C103.391 11.7139 106.963 7.82556 111.665 7.82556C113.479 7.82556 115.053 8.21047 116.643 9.08788V12.9369C115.369 12.0678 113.767 11.24 112.187 11.24C108.891 11.24 106.927 13.5205 106.927 16.7539C106.927 19.9428 109.005 22.336 112.255 22.336C113.726 22.336 114.938 21.7814 115.907 20.665C116.871 19.5548 117.371 17.9241 117.371 15.7347V3.75407C117.37 3.32103 117.455 2.89201 117.619 2.49152C117.784 2.09103 118.026 1.7269 118.331 1.41992C118.637 1.11295 118.999 0.869139 119.399 0.702418C119.799 0.535697 120.227 0.449328 120.66 0.448242L120.908 0.448242V16.2966C120.908 19.0871 120.106 21.3717 118.483 23.1245ZM128.471 6.13385C128.1 6.55186 127.568 6.74432 126.92 6.74432C125.705 6.74432 124.836 5.84414 124.836 4.63252C124.836 3.39296 125.689 2.5559 126.919 2.5559C128.103 2.5559 129.002 3.43849 129.002 4.63252C129.002 5.22229 128.83 5.73032 128.471 6.13385ZM146.445 15.7347C146.445 14.3327 145.917 13.2225 144.858 12.3823C143.903 11.626 142.71 11.2411 141.259 11.2411C138.057 11.2411 136.001 13.7564 136.001 16.8594C136.001 19.8445 138.181 22.336 141.226 22.336C143.343 22.336 144.475 21.0923 145.683 19.5424V24.0091C145.068 24.4727 144.36 24.9786 143.638 25.2745C142.876 25.5953 141.965 25.7505 140.913 25.7505C135.822 25.7505 132.465 21.5114 132.465 16.6132C132.465 14.0978 133.241 12.0181 134.807 10.3968C136.467 8.67815 138.645 7.82556 141.311 7.82556C146.366 7.82556 149.982 10.7434 149.982 16.0151V25.3997H149.734C149.301 25.3986 148.872 25.3123 148.473 25.1455C148.073 24.9787 147.71 24.7348 147.405 24.4277C147.099 24.1207 146.857 23.7564 146.692 23.3558C146.528 22.9552 146.443 22.526 146.445 22.0929V15.7347ZM98.0224 14.7269C97.5755 13.3373 97.0148 12.6534 95.7259 11.9302C92.6607 10.2084 89.6431 11.6746 88.2404 14.7135L98.0224 14.7269ZM95.3235 25.6977C93.0642 26.1809 90.8473 25.8084 88.6842 24.5937C86.5738 23.409 85.1617 21.648 84.4531 19.3199C83.0214 14.6121 85.9542 9.36621 90.6724 8.09665C93.0104 7.46653 95.2531 7.7521 97.3831 8.9482C100.921 10.9369 102.21 14.012 101.986 17.9748L87.7345 17.9448C87.9445 19.561 88.9407 20.8254 90.3414 21.6117C91.7628 22.4095 93.0683 22.6009 94.2797 22.2222C95.6245 21.798 96.7169 20.694 97.6045 19.6665L100.508 21.7938C99.3238 23.9253 97.7111 25.1876 95.3235 25.6977ZM125.151 8.17736H128.688V25.3997H128.439C128.006 25.3986 127.578 25.3122 127.178 25.1455C126.778 24.9787 126.416 24.7348 126.11 24.4277C125.805 24.1206 125.563 23.7564 125.398 23.3557C125.234 22.9551 125.149 22.526 125.151 22.0929V8.17736ZM5.17656 25.3987C1.71622 25.3987 1.04107e-05 23.0334 1.04107e-05 19.7307V7.19751C-0.00107776 6.76433 0.0831487 6.33518 0.247881 5.93456C0.412613 5.53394 0.654624 5.1697 0.960097 4.86263C1.26557 4.55556 1.62852 4.31168 2.02823 4.1449C2.42794 3.97813 2.85658 3.89173 3.28967 3.89065H3.53794V8.17736H9.51415V11.5918H3.53794V20.1259C3.53794 21.5766 4.18139 21.9842 5.56139 21.9842H9.51311V25.3987H5.17656ZM25.7193 23.2227C23.971 24.9062 21.871 25.7505 19.4317 25.7505C17.0141 25.7505 14.9255 24.9052 13.1783 23.2227C11.4248 21.5321 10.5507 19.381 10.5507 16.788C10.5507 11.7305 14.3928 7.82556 19.4317 7.82556C21.8493 7.82556 23.9441 8.67711 25.7017 10.373C27.4666 12.073 28.3479 14.2179 28.3479 16.788C28.3479 19.381 27.4728 21.5321 25.7204 23.2227H25.7193ZM42.2586 12.3213C41.7393 13.1956 41.3369 13.8236 41.0535 14.2023C40.7421 14.6141 40.4338 14.9432 40.1286 15.1708C42.5866 15.9696 43.5021 17.681 43.5021 20.2315V25.3987H43.2538C42.3793 25.3965 41.5415 25.047 40.9246 24.4271C40.3077 23.8071 39.9622 22.9675 39.9642 22.0929V20.5822C39.9642 18.9309 39.2276 17.8103 37.4876 17.8103H34.2724V25.3987H34.0242C33.1499 25.3962 32.3125 25.0466 31.696 24.4267C31.0795 23.8067 30.7344 22.9673 30.7366 22.0929V3.75407C30.7353 3.32108 30.8194 2.89209 30.984 2.4916C31.1485 2.09111 31.3904 1.72697 31.6957 1.41998C32.001 1.113 32.3637 0.869172 32.7633 0.702438C33.1628 0.535704 33.5912 0.449328 34.0242 0.448242L34.2724 0.448242V14.3607H35.3183C36.4666 14.3607 37.2217 13.9654 37.6562 13.2184L40.6262 8.17839L44.6576 8.17425L42.2566 12.3213H42.2586ZM60.5173 23.2227C58.769 24.9062 56.669 25.7505 54.2297 25.7505C51.8121 25.7505 49.7245 24.9052 47.9762 23.2227C46.2228 21.5321 45.3486 19.381 45.3486 16.788C45.3486 11.7305 49.1907 7.82556 54.2297 7.82556C56.6483 7.82556 58.7421 8.67711 60.5007 10.373C62.2645 12.073 63.1459 14.2179 63.1459 16.788C63.1459 19.381 62.2697 21.5321 60.5173 23.2227ZM57.9642 12.7807C56.9897 11.7553 55.7514 11.2411 54.2297 11.2411C50.9742 11.2411 49.0262 13.626 49.0262 16.788C49.0262 19.9066 51.0207 22.336 54.2297 22.336C57.4397 22.336 59.4331 19.9066 59.4331 16.788C59.4331 15.1325 58.9386 13.804 57.9642 12.7807ZM23.1673 12.7807C22.1928 11.7553 20.9535 11.2411 19.4328 11.2411C16.1773 11.2411 14.2293 13.626 14.2293 16.788C14.2293 19.9066 16.2238 22.336 19.4328 22.336C22.6417 22.336 24.6362 19.9066 24.6362 16.788C24.6362 15.1325 24.1417 13.804 23.1673 12.7807Z" fill="#03AC0E"/>
</g>
<defs>
<clipPath id="clip0_1_1862">
<rect width="150" height="33.11" fill="white" transform="translate(0 0.448242)"/>
</clipPath>
</defs>
</svg>
